<?xml version="1.0" encoding="utf-8"?>
<!-- Generator: Adobe Illustrator 14.0.0, SVG Export Plug-In . SVG Version: 6.00 Build 43363)  -->
<!DOCTYPE svg PUBLIC "-//W3C//DTD SVG 1.1//EN" "http://www.w3.org/Graphics/SVG/1.1/DTD/svg11.dtd">
<svg version="1.1" id="Layer_2" xmlns="http://www.w3.org/2000/svg" xmlns:xlink="http://www.w3.org/1999/xlink" x="0px" y="0px"
	 width="828px" height="828px" viewBox="0 0 828 828" enable-background="new 0 0 828 828" xml:space="preserve">
<g>
	<path fill="#84A25B" d="M754,487.325c-2.186-2.186-16.821-4.876-25.966-20.476c2.173-1.157,4.215-2.4,6.133-3.718
		c4.338-2.993,8.027-6.37,10.989-10.225c5.053-6.588,3.805-16.024-2.783-21.077c-6.594-5.053-16.028-3.805-21.083,2.783
		c-0.341,0.451-0.855,1.025-1.548,1.668c-0.275,0.251-0.57,0.516-0.897,0.784c-1.695-5.39-3.783-10.821-6.394-16.134
		c-8.551-17.414-22.702-33.598-46.852-43.144c-3.704-1.471-7.645-2.779-11.838-3.914c-4.273-0.998-8.405-1.718-12.397-2.178
		c-25.829-2.998-45.973,4.621-61.747,15.957c-5.043,3.622-9.64,7.622-13.831,11.777c-0.061-0.122-0.114-0.245-0.169-0.369
		c-0.757-1.686-1.126-3.062-1.271-3.959c-1.021-6.297-5.813-11.045-11.696-12.297c3.554-30.883-10.57-60.471-37.371-72.568
		c-34.218-15.445-76.135,3.459-93.631,42.219c-17.501,38.761-3.946,82.701,30.267,98.146c15.256,6.881,32.035,6.939,47.506,1.458
		c2.373,4.971,5.621,9.9,9.739,14.768c4.932,5.8,11.114,11.499,18.677,16.916l-15.624,39.945c-0.009,0.023-0.019,0.042-0.021,0.064
		c-2.06,5.354,1.312,7.677,5.896,9.491c0.035,0.019,0.078,0.032,0.118,0.046c5.28,1.981,11.03,3.941,17.155,5.809l-4.176,10.667
		c-0.003,0.022-0.012,0.04-0.021,0.063c-1.313,3.863,1.877,8.032,8.394,10.453c0.177,0.067,0.359,0.132,0.541,0.195
		c19.793,7.158,45.508,13.852,72.828,17.014c5.73,0.582,9.463-0.201,10.621-9.5h0.004l4.998-43.667
		c3.107,0.669,6.232,1.274,9.372,1.808l2.758,32.629c0,0.008,0,0.019,0,0.026l0.432,5.107c0.726,3.432,2.542,5.642,6.648,5.222
		c0.008,0,0.019,0,0.026,0c3.463-0.311,6.908-0.705,10.325-1.189l0.063,0.756c0.024,0.265,0.046,0.524,0.069,0.779
		c0.541,5.531,1.855,9.21,10.461,8.726c24.587-2.615,48.143-9.683,67.598-23.359c0.014-0.011,0.022-0.014,0.036-0.024
		c1.563-1.102,3.103-2.246,4.61-3.434c4.702-4.353,4.639-8.579,1.039-15.323c-0.019-0.041-0.04-0.083-0.063-0.123l-13.387-24.91
		C737.543,504.99,746.096,497.208,754,487.325z"/>
	<path fill="#92B265" d="M754,487.325c-2.186-2.186-16.821-4.876-25.966-20.476c2.173-1.157,4.215-2.4,6.133-3.718
		c4.338-2.993,8.027-6.37,10.989-10.225c5.053-6.588,3.805-16.024-2.783-21.077c-6.594-5.053-16.028-3.805-21.083,2.783
		c-0.341,0.451-0.855,1.025-1.548,1.668c-0.275,0.251-0.57,0.516-0.897,0.784c-1.695-5.39-3.783-10.821-6.394-16.134
		c-8.551-17.414-22.702-33.598-46.852-43.144c-3.704-1.471-7.645-2.779-11.838-3.914c-4.273-0.998-8.405-1.718-12.397-2.178
		c-25.829-2.998-45.973,4.621-61.747,15.957c-5.043,3.622-9.64,7.622-13.831,11.777c-0.061-0.122-0.114-0.245-0.169-0.369
		c-0.757-1.686-1.126-3.062-1.271-3.959c-1.021-6.297-5.813-11.045-11.696-12.297c3.554-30.883-10.57-60.471-37.371-72.568
		c-34.218-15.445-76.135,3.459-93.631,42.219c-17.501,38.761-3.946,82.701,30.267,98.146c15.256,6.881,32.035,6.939,47.506,1.458
		c2.373,4.971,5.621,9.9,9.739,14.768c4.932,5.8,11.114,11.499,18.677,16.916c3.612,2.599,7.545,5.127,11.801,7.569
		c3.737,2.142,7.723,4.223,11.974,6.22l-16.251,41.566l-4.176,10.667c-0.003,0.022-0.012,0.04-0.021,0.063
		c-1.313,3.863,1.877,8.032,8.394,10.453c0.177,0.067,0.359,0.132,0.541,0.195c19.793,7.158,45.508,13.852,72.828,17.014
		c5.73,0.582,9.463-0.201,10.621-9.5h0.004l4.998-43.667c3.107,0.669,6.232,1.274,9.372,1.808
		c5.583,0.947,11.204,1.664,16.832,2.086l3.357,39.709l0.063,0.756c0.024,0.265,0.046,0.524,0.069,0.779
		c0.541,5.531,1.855,9.21,10.461,8.726c24.587-2.615,48.143-9.683,67.598-23.359c0.014-0.011,0.022-0.014,0.036-0.024
		c1.563-1.102,3.103-2.246,4.61-3.434c4.702-4.353,4.639-8.579,1.039-15.323c-0.019-0.041-0.04-0.083-0.063-0.123l-13.387-24.91
		C737.543,504.99,746.096,497.208,754,487.325z"/>
	<path fill="#008964" d="M742.373,431.83c-6.594-5.053-16.028-3.805-21.083,2.783c-0.341,0.451-0.855,1.025-1.548,1.668
		c-0.275,0.251-0.57,0.516-0.897,0.784c-1.695-5.39-3.783-10.821-6.394-16.134c-28.963,8.725-54.762-13.583-46.852-43.144
		c-3.704-1.471-7.645-2.779-11.838-3.914c-4.273-0.998-8.405-1.718-12.397-2.178v0.004c-6.934,29.871-40.295,37.403-61.747,15.952
		c-5.043,3.622-9.64,7.622-13.831,11.777c-0.061-0.122-0.114-0.245-0.169-0.369c-0.757-1.686-1.126-3.062-1.271-3.959
		c-1.021-6.297-5.813-11.045-11.696-12.297c-1.777-0.388-3.649-0.447-5.55-0.142c-8.202,1.331-13.764,9.054-12.438,17.25
		c0.557,3.413,1.559,6.784,2.948,10.138c2.441,5.864,6.078,11.678,10.927,17.401c7.279,8.574,17.313,16.926,30.476,24.485
		c13.163,7.554,29.46,14.301,49.357,19.555l0.334,0.081c18.139,4.348,34.25,6.217,48.405,6.217
		c16.727-0.006,30.719-2.598,42.052-6.913c3.165-1.208,6.122-2.556,8.874-4.027c2.173-1.157,4.215-2.4,6.133-3.718
		c4.338-2.993,8.027-6.37,10.989-10.225C750.209,446.319,748.961,436.883,742.373,431.83z M677.108,447.718
		c-11.464,0-25.2-1.517-41.23-5.349c-13.386-3.54-24.571-7.756-33.788-12.233c-1.863-0.907-3.649-1.823-5.354-2.744
		c10.598-14.392,34.014-21.291,47.855-17.085c14.14,2.793,31.479,19.784,34.153,37.403
		C678.206,447.714,677.659,447.718,677.108,447.718z"/>
	<path fill="#00926B" d="M728.034,466.85c-2.752,1.472-5.709,2.819-8.874,4.027c-11.333,4.315-25.325,6.907-42.052,6.913
		c-14.155,0-30.267-1.869-48.405-6.217l-0.334-0.081c-19.897-5.254-36.194-12.001-49.357-19.555
		c-13.163-7.56-23.196-15.911-30.476-24.485c-4.849-5.723-8.485-11.537-10.927-17.401c-1.39-3.354-2.392-6.726-2.948-10.138
		c-1.325-8.196,4.236-15.919,12.438-17.25c1.9-0.305,3.772-0.246,5.55,0.142c5.883,1.252,10.676,6,11.696,12.297
		c0.146,0.897,0.515,2.273,1.271,3.959c0.055,0.124,0.108,0.247,0.169,0.369c0.747,1.613,1.826,3.486,3.294,5.527
		c3.167,4.402,8.154,9.569,15.404,14.8c3.53,2.552,7.6,5.116,12.251,7.635c1.705,0.921,3.491,1.837,5.354,2.744
		c9.217,4.478,20.402,8.693,33.788,12.233c16.03,3.832,29.767,5.349,41.23,5.349c0.551,0,1.098-0.004,1.636-0.009
		c9.469-0.123,17.332-1.285,23.625-2.976c6.656-1.782,11.554-4.165,14.743-6.37c0.647-0.441,1.227-0.88,1.732-1.298
		c0.327-0.269,0.622-0.533,0.897-0.784c0.692-0.643,1.207-1.217,1.548-1.668c5.055-6.588,14.489-7.836,21.083-2.783
		c6.588,5.053,7.836,14.489,2.783,21.077c-2.962,3.854-6.651,7.231-10.989,10.225C732.249,464.449,730.207,465.692,728.034,466.85z"
		/>
	<path fill="#00543A" d="M432.617,379.958c0.153,1.806-1.187,3.393-2.992,3.546c-1.805,0.154-3.393-1.185-3.546-2.991
		c-0.153-1.805,1.187-3.393,2.991-3.546C430.875,376.813,432.463,378.152,432.617,379.958z M489.706,403.366
		c-1.806,0.154-3.144,1.742-2.989,3.546c0.152,1.805,1.74,3.145,3.545,2.991c1.805-0.153,3.145-1.741,2.99-3.548
		C493.099,404.551,491.512,403.212,489.706,403.366z"/>
</g>
</svg>
